<?xml version="1.0" encoding="UTF-8"?>
<svg id="Layer_1" data-name="Layer 1" xmlns="http://www.w3.org/2000/svg" viewBox="0 0 784.6 824.44">
  <defs>
    <style>
      .cls-1 {
        fill: #1dcaff;
        stroke-width: 0px;
      }
    </style>
  </defs>
  <path class="cls-1" d="M177.12,824.07c-9.08,1.12-16.46-.6-20.65-1.93-3.76-1.89-6.45-3.62-9.04-5.48-15.83-11.41-21.38-28.93-14.35-47.26,2.77-7.22,6.51-14.12,10.37-20.85,29.85-51.95,59.84-103.83,89.78-155.73,1.6-2.77,2.85-5.81,4.79-8.32,6.04-7.82,4.67-14.54-1.14-22.15-19.03-24.9-33.84-52.12-43.17-82.19-12.79-41.22-18.02-83.03-10.46-127.11,4.33-20.86,16.26-63.73,52.32-102.34,69.03-73.92,165.46-66.89,175.04-66.03,94.46,8.49,157.4,78.5,179.29,130.35,16.06,38.04,14.84,74.97,14.84,74.97-.43,44.25-19.09,80.33-54.81,107.09-32.31,24.21-68.18,29.46-106.77,19.83-2.01-.5-3.86-1.66-7.53-3.29,4.3-2.43,6.81-4.1,9.52-5.34,46.53-21.27,76.55-70.19,73.69-120.19-2.96-51.78-38.39-97.56-87.14-114.29-87.04-29.86-175.31,44.65-164.94,137.08,11.4,101.62,92.91,170.42,179.58,183.33,91.89,13.69,178.21-27,224.77-107.19,23.74-40.9,31.35-85.34,24.92-132.41-19.24-140.81-128.3-250.61-269.58-265.25-114.91-11.91-209.16,30.09-279.46,122.4-45.04,59.14-64.5,126.84-60.09,200.82,3.34,55.94,20.79,107.67,53.03,153.82,6.33,9.06,7.34,15.69,1.01,25.57-13.5,21.05-25.26,43.22-38.53,66.32-11.57-14.22-23.13-28.44-34.7-42.67-14.83-22.41-30.41-50.31-43.44-83.72-5.83-14.95-10.48-29.28-14.2-42.75-8.98-40.93-16.49-103.01-1.5-174.94,9.4-45.1,24.31-78.22,31.56-93.05,24.4-49.93,59.38-93.67,103.99-132.04C175.82,64.42,274.82-6.04,409.62.42c15.93.76,80.4,4.69,153.72,40.37,110.44,53.73,182.54,141.23,211.03,262.47,6.31,26.85,10.86,54.08,10.16,81.42-2.78,108.51-49.74,193.07-141.02,252.33-27.85,18.08-58.43,30.26-92.59,38.61-4.46,1.25-7.01,2.08-9.55,2.91,0,0-.66-.37-.99-.18-4.88.52-9.48.49-13.96,1.23-73.64,12.1-141.57-4.38-205.5-40.94-3.88-2.22-7.8-4.38-12.32-6.91-2.72,4.13-5.12,7.38-7.12,10.87-27.26,47.59-54.42,95.25-81.74,142.81-4.55,7.92-9.77,15.45-14.97,24.04-.29.89-.16,1.04-.89,1.3-1.34,1.23-1.95,2.21-2.56,3.19-3.63,2.85-12.01,8.64-24.2,10.15Z"/>
</svg>